# Blender 5.1.2
# www.blender.org
mtllib ladder.mtl
o Ladder
v -0.006700 -0.471462 0.010000
v 0.006700 -0.471462 0.010000
v -0.006700 -0.471462 -0.010000
v 0.006700 -0.471462 -0.010000
v -0.006700 0.815704 0.010000
v 0.006700 0.815704 0.010000
v -0.006700 0.815704 -0.010000
v 0.006700 0.815704 -0.010000
v 0.201938 -0.471462 0.010000
v 0.215338 -0.471462 0.010000
v 0.201938 -0.471462 -0.010000
v 0.215338 -0.471462 -0.010000
v 0.201938 0.815704 0.010000
v 0.215338 0.815704 0.010000
v 0.201938 0.815704 -0.010000
v 0.215338 0.815704 -0.010000
v 0.005964 -0.338868 0.010000
v 0.206964 -0.338868 0.010000
v 0.005964 -0.338868 -0.010000
v 0.206964 -0.338868 -0.010000
v 0.005964 -0.318868 0.010000
v 0.206964 -0.318868 0.010000
v 0.005964 -0.318868 -0.010000
v 0.206964 -0.318868 -0.010000
v 0.005964 -0.198868 0.010000
v 0.206964 -0.198868 0.010000
v 0.005964 -0.198868 -0.010000
v 0.206964 -0.198868 -0.010000
v 0.005964 -0.178868 0.010000
v 0.206964 -0.178868 0.010000
v 0.005964 -0.178868 -0.010000
v 0.206964 -0.178868 -0.010000
v 0.005964 -0.058868 0.010000
v 0.206964 -0.058868 0.010000
v 0.005964 -0.058868 -0.010000
v 0.206964 -0.058868 -0.010000
v 0.005964 -0.038868 0.010000
v 0.206964 -0.038868 0.010000
v 0.005964 -0.038868 -0.010000
v 0.206964 -0.038868 -0.010000
v 0.005964 0.081132 0.010000
v 0.206964 0.081132 0.010000
v 0.005964 0.081132 -0.010000
v 0.206964 0.081132 -0.010000
v 0.005964 0.101132 0.010000
v 0.206964 0.101132 0.010000
v 0.005964 0.101132 -0.010000
v 0.206964 0.101132 -0.010000
v 0.005964 0.221132 0.010000
v 0.206964 0.221132 0.010000
v 0.005964 0.221132 -0.010000
v 0.206964 0.221132 -0.010000
v 0.005964 0.241132 0.010000
v 0.206964 0.241132 0.010000
v 0.005964 0.241132 -0.010000
v 0.206964 0.241132 -0.010000
v 0.005964 0.361132 0.010000
v 0.206964 0.361132 0.010000
v 0.005964 0.361132 -0.010000
v 0.206964 0.361132 -0.010000
v 0.005964 0.381132 0.010000
v 0.206964 0.381132 0.010000
v 0.005964 0.381132 -0.010000
v 0.206964 0.381132 -0.010000
v 0.005964 0.501132 0.010000
v 0.206964 0.501132 0.010000
v 0.005964 0.501132 -0.010000
v 0.206964 0.501132 -0.010000
v 0.005964 0.521132 0.010000
v 0.206964 0.521132 0.010000
v 0.005964 0.521132 -0.010000
v 0.206964 0.521132 -0.010000
v 0.005964 0.641132 0.010000
v 0.206964 0.641132 0.010000
v 0.005964 0.641132 -0.010000
v 0.206964 0.641132 -0.010000
v 0.005964 0.661132 0.010000
v 0.206964 0.661132 0.010000
v 0.005964 0.661132 -0.010000
v 0.206964 0.661132 -0.010000
vn -0.0000 -1.0000 -0.0000
vn -0.0000 -0.0000 1.0000
vn -0.0000 1.0000 -0.0000
vn -0.0000 -0.0000 -1.0000
vn -1.0000 -0.0000 -0.0000
vn 1.0000 -0.0000 -0.0000
vt 0.191895 0.560922
vt 0.191895 0.576460
vt 0.181484 0.576460
vt 0.181484 0.560922
vt 0.072563 1.000000
vt 0.062152 1.000000
vt 0.062152 0.000000
vt 0.072563 0.000000
vt 0.191895 0.591998
vt 0.181484 0.591998
vt 0.072563 1.000000
vt 0.072563 0.000000
vt 0.082973 0.000000
vt 0.082973 1.000000
vt 0.000000 1.000000
vt 0.000000 0.000000
vt 0.015538 0.000000
vt 0.015538 1.000000
vt 0.031076 1.000000
vt 0.031076 0.000000
vt 0.191895 0.591998
vt 0.191895 0.607536
vt 0.181484 0.607536
vt 0.181484 0.591998
vt 0.093383 1.000000
vt 0.082973 1.000000
vt 0.082973 0.000000
vt 0.093383 0.000000
vt 0.181484 0.607536
vt 0.191895 0.623074
vt 0.181484 0.623074
vt 0.093383 1.000000
vt 0.093383 0.000000
vt 0.103794 0.000000
vt 0.103794 1.000000
vt 0.046614 0.000000
vt 0.046614 1.000000
vt 0.046614 1.000000
vt 0.046614 0.000000
vt 0.103794 0.312314
vt 0.119332 0.312314
vt 0.119332 0.468471
vt 0.103794 0.468471
vt 0.165946 0.000000
vt 0.165946 0.156157
vt 0.150408 0.156157
vt 0.150408 0.000000
vt 0.103794 0.624628
vt 0.103794 0.468471
vt 0.119332 0.468471
vt 0.119332 0.624628
vt 0.165946 0.468471
vt 0.150408 0.468471
vt 0.150408 0.312314
vt 0.165946 0.312314
vt 0.197022 0.483232
vt 0.181484 0.483232
vt 0.181484 0.467694
vt 0.197022 0.467694
vt 0.197022 0.483232
vt 0.197022 0.498770
vt 0.181484 0.498770
vt 0.181484 0.483232
vt 0.103794 0.624628
vt 0.119332 0.624628
vt 0.119332 0.780786
vt 0.103794 0.780786
vt 0.119332 0.000000
vt 0.119332 0.156157
vt 0.103794 0.156157
vt 0.103794 0.000000
vt 0.103794 0.936943
vt 0.119332 0.936943
vt 0.119332 0.312314
vt 0.103794 0.312314
vt 0.103794 0.156157
vt 0.119332 0.156157
vt 0.181484 0.327852
vt 0.181484 0.312314
vt 0.197022 0.312314
vt 0.197022 0.327852
vt 0.197022 0.343390
vt 0.181484 0.343390
vt 0.181484 0.327852
vt 0.197022 0.327852
vt 0.119332 0.000000
vt 0.134870 0.000000
vt 0.134870 0.156157
vt 0.119332 0.156157
vt 0.165946 0.624628
vt 0.165946 0.780785
vt 0.150408 0.780785
vt 0.150408 0.624628
vt 0.119332 0.156157
vt 0.134870 0.156157
vt 0.134870 0.312314
vt 0.165946 0.936943
vt 0.150408 0.936943
vt 0.150408 0.780785
vt 0.165946 0.780786
vt 0.197022 0.358928
vt 0.181484 0.358928
vt 0.197022 0.343390
vt 0.197022 0.374466
vt 0.181484 0.374466
vt 0.119332 0.312314
vt 0.134870 0.312314
vt 0.134870 0.468471
vt 0.119332 0.468471
vt 0.181484 0.000000
vt 0.181484 0.156157
vt 0.165946 0.156157
vt 0.165946 -0.000000
vt 0.119332 0.624628
vt 0.119332 0.468471
vt 0.134870 0.468471
vt 0.134870 0.624628
vt 0.181484 0.312314
vt 0.165946 0.312314
vt 0.165946 0.156157
vt 0.181484 0.156157
vt 0.197022 0.514308
vt 0.181484 0.514308
vt 0.181484 0.498770
vt 0.197022 0.498770
vt 0.197022 0.529846
vt 0.181484 0.529846
vt 0.119332 0.624628
vt 0.134870 0.624628
vt 0.134870 0.780786
vt 0.119332 0.780786
vt 0.181484 0.312314
vt 0.181484 0.468471
vt 0.165946 0.312314
vt 0.119332 0.936943
vt 0.134870 0.936943
vt 0.181484 0.624628
vt 0.165946 0.624628
vt 0.165946 0.468471
vt 0.181484 0.468471
vt 0.197022 0.390004
vt 0.181484 0.390004
vt 0.181484 0.374466
vt 0.197022 0.390004
vt 0.197022 0.405542
vt 0.181484 0.405542
vt 0.181484 0.390004
vt 0.134870 0.000000
vt 0.150408 0.000000
vt 0.134870 0.156157
vt 0.150408 0.624628
vt 0.150408 0.468471
vt 0.134870 0.156157
vt 0.150408 0.156157
vt 0.150408 0.312314
vt 0.165946 0.312314
vt 0.150408 0.312314
vt 0.150408 0.156157
vt 0.165946 0.156157
vt 0.197022 0.421080
vt 0.181484 0.421080
vt 0.181484 0.405542
vt 0.197022 0.405542
vt 0.197022 0.421080
vt 0.197022 0.436618
vt 0.181484 0.436618
vt 0.181484 0.421080
vt 0.134870 0.312314
vt 0.150408 0.312314
vt 0.150408 0.468471
vt 0.134870 0.468471
vt 0.197022 -0.000000
vt 0.197022 0.156157
vt 0.181484 0.156157
vt 0.181484 -0.000000
vt 0.134870 0.468471
vt 0.150408 0.468471
vt 0.150408 0.624628
vt 0.181484 0.780786
vt 0.165946 0.624628
vt 0.181484 0.624628
vt 0.197022 0.545384
vt 0.181484 0.545384
vt 0.197022 0.560922
vt 0.181484 0.560922
vt 0.134870 0.624628
vt 0.150408 0.624628
vt 0.150408 0.780786
vt 0.134870 0.780786
vt 0.181484 0.780785
vt 0.181484 0.936943
vt 0.165946 0.936943
vt 0.165946 0.780785
vt 0.150408 0.936943
vt 0.197022 0.312314
vt 0.181484 0.312314
vt 0.181484 0.156157
vt 0.197022 0.156157
vt 0.197022 0.452156
vt 0.181484 0.452156
vt 0.181484 0.436618
vt 0.197022 0.436618
s 0
usemtl 
f 1/1/1 3/2/1 4/3/1 2/4/1
f 1/5/2 2/6/2 6/7/2 5/8/2
f 5/3/3 6/2/3 8/9/3 7/10/3
f 3/11/4 7/12/4 8/13/4 4/14/4
f 1/15/5 5/16/5 7/17/5 3/18/5
f 2/19/6 4/18/6 8/17/6 6/20/6
f 9/21/1 11/22/1 12/23/1 10/24/1
f 9/25/2 10/26/2 14/27/2 13/28/2
f 13/29/3 14/22/3 16/30/3 15/31/3
f 11/32/4 15/33/4 16/34/4 12/35/4
f 9/19/5 13/20/5 15/36/5 11/37/5
f 10/6/6 12/38/6 16/39/6 14/7/6
f 17/40/1 19/41/1 20/42/1 18/43/1
f 17/44/2 18/45/2 22/46/2 21/47/2
f 21/48/3 22/49/3 24/50/3 23/51/3
f 19/52/4 23/53/4 24/54/4 20/55/4
f 17/56/5 21/57/5 23/58/5 19/59/5
f 18/60/6 20/61/6 24/62/6 22/63/6
f 25/64/1 27/65/1 28/66/1 26/67/1
f 25/68/2 26/69/2 30/70/2 29/71/2
f 29/72/3 30/67/3 32/66/3 31/73/3
f 27/74/4 31/75/4 32/76/4 28/77/4
f 25/78/5 29/79/5 31/80/5 27/81/5
f 26/82/6 28/83/6 32/84/6 30/85/6
f 33/86/1 35/87/1 36/88/1 34/89/1
f 33/90/2 34/91/2 38/92/2 37/93/2
f 37/41/3 38/94/3 40/95/3 39/96/3
f 35/97/4 39/98/4 40/99/4 36/100/4
f 33/101/5 37/102/5 39/83/5 35/103/5
f 34/101/6 36/104/6 40/105/6 38/102/6
f 41/106/1 43/107/1 44/108/1 42/109/1
f 41/110/2 42/111/2 46/112/2 45/113/2
f 45/114/3 46/115/3 48/116/3 47/117/3
f 43/118/4 47/119/4 48/120/4 44/121/4
f 41/122/5 45/123/5 47/124/5 43/125/5
f 42/122/6 44/126/6 48/127/6 46/123/6
f 49/128/1 51/129/1 52/130/1 50/131/1
f 49/132/2 50/133/2 54/52/2 53/134/2
f 53/135/3 54/131/3 56/130/3 55/136/3
f 51/137/4 55/138/4 56/139/4 52/140/4
f 49/141/5 53/142/5 55/143/5 51/104/5
f 50/144/6 52/145/6 56/146/6 54/147/6
f 57/148/1 59/149/1 60/46/1 58/150/1
f 57/139/2 58/138/2 62/151/2 61/152/2
f 61/96/3 62/153/3 64/154/3 63/155/3
f 59/156/4 63/157/4 64/158/4 60/159/4
f 57/160/5 61/161/5 63/162/5 59/163/5
f 58/164/6 60/165/6 64/166/6 62/167/6
f 65/168/1 67/169/1 68/170/1 66/171/1
f 65/172/2 66/173/2 70/174/2 69/175/2
f 69/117/3 70/176/3 72/177/3 71/178/3
f 67/179/4 71/100/4 72/180/4 68/181/4
f 65/182/5 69/183/5 71/127/5 67/126/5
f 66/182/6 68/184/6 72/185/6 70/183/6
f 73/186/1 75/187/1 76/188/1 74/189/1
f 73/190/2 74/191/2 78/192/2 77/193/2
f 77/136/3 78/189/3 80/188/3 79/194/3
f 75/195/4 79/196/4 80/197/4 76/198/4
f 73/199/5 77/200/5 79/201/5 75/202/5
f 74/199/6 76/59/6 80/58/6 78/200/6
